<svg width="400" height="200" viewBox="0 0 400 200" xmlns="http://www.w3.org/2000/svg">
  <defs>
    <linearGradient id="demoGradient" x1="0%" y1="0%" x2="100%" y2="100%">
      <stop offset="0%" style="stop-color:#667eea;stop-opacity:1" />
      <stop offset="100%" style="stop-color:#764ba2;stop-opacity:1" />
    </linearGradient>
  </defs>
  
  <!-- Background -->
  <rect width="400" height="200" fill="url(#demoGradient)"/>
  
  <!-- People icons -->
  <g fill="white" opacity="0.9">
    <!-- Person 1 -->
    <circle cx="80" cy="80" r="12"/>
    <rect x="68" y="95" width="24" height="30" rx="12"/>
    
    <!-- Person 2 -->
    <circle cx="140" cy="70" r="10"/>
    <rect x="130" y="82" width="20" height="25" rx="10"/>
    
    <!-- Person 3 -->
    <circle cx="200" cy="85" r="14"/>
    <rect x="186" y="102" width="28" height="35" rx="14"/>
    
    <!-- Person 4 -->
    <circle cx="260" cy="75" r="11"/>
    <rect x="249" y="88" width="22" height="28" rx="11"/>
    
    <!-- Person 5 -->
    <circle cx="320" cy="90" r="13"/>
    <rect x="307" y="106" width="26" height="32" rx="13"/>
  </g>
  
  <!-- Chart elements -->
  <g stroke="white" stroke-width="2" fill="none" opacity="0.7">
    <polyline points="50,150 100,130 150,140 200,120 250,135 300,115 350,125"/>
  </g>
  
  <!-- Title -->
  <text x="200" y="180" text-anchor="middle" fill="white" font-family="Arial, sans-serif" font-size="16" font-weight="bold">
    Demografía y Sociedad
  </text>
</svg>
